Love for All and Sharing is the first step to solving all the problems of humanity.

Websites I want to share.

    
http://www.shareintl.org/

    
http://www.lightmiddleway.com


Thank you very much

No credit for me...credit to EVERYONE for sharing
 
http://thepiratebay.org/user/raymondhome/

PLOT
About the inhabitants of a small Iowa town suddenly plagued by insanity and then death after a mysterious toxin contaminates their water supply.

IMDb RATING: 7.3/10 (3,739 votes)

Runtime.......:1h 36mn
Video
Format : MPEG-4 Visual
Format profile : Streaming Video@L1
Format settings, BVOP : Yes
Format settings, QPel : No
Format settings, GMC : No warppoints
Format settings, Matrix : Default
Muxing mode : Packed bitstream
Codec ID : XVID
Codec ID/Hint : XviD
Duration : 1h 36mn
Bit rate : 1 920 Kbps
Width : 704 pixels
Height : 304 pixels
Display aspect ratio : 2.35
Frame rate : 25.000 fps
Resolution : 24 bits
Colorimetry : 4:2:0
Scan type : Progressive
Bits/(Pixel*Frame) : 0.359
Stream size : 1.30 GiB (93%)
Writing library : XviD 50
Audio
Format : MPEG Audio
Format version : Version 1
Format profile : Layer 3
Codec ID : 55
Codec ID/Hint : MP3
Duration : 1h 36mn
Bit rate mode : Constant
Bit rate : 128 Kbps
Channel(s) : 2 channels
Sampling rate : 44.1 KHz
Resolution : 16 bits
Stream size : 88.6 MiB (6%)
Alignment : Split accross interleaves
Interleave, duration : 40 ms (1.00 video frame)
Interleave, preload duration : 500 ms

IMAGiNE NOTES
Well for this we used Rx's audio (thanks) and also the audio off the russian source for the intro and end credits.
The video is ripped from the dvd9 we were sent (thanks).
Done the usually stuff...slightly increase in the brightness and colours and also a slight change on the rgb colours, nothing to major done to it.

credit IMAGiNE & to all the people who made it possible for me to share this with everyone...especially EVERYONE involve in the production of the movie...IF YOU LIKE IT...BUY IT :)

UPLOAD DEDICATED TO redchaos2354, Motley Crue, jdpennington, BADASS, W1ck3d1nt3ntz, ceo54, DaRkReAlM, ghostman, karakurachow, megaplay, Emery1337x, SaM, geordieboy1979, timamirrockdude, Noir, Shedevil, bone111, JorgeMontana, BlueLady, xxxUniversalAbsurdityxxx, mc68, TheFalcon007, pardeep333, X, DR67, DiNGiE, xclusive666, pro2kon, EMUworld & many, many more & to all the awesome people who are sharing (ALL THE UPLOADERS, THE RIPPERS, THE SCENE GROUPS, ETC, THE WHOLE P2P COMMUNITY)***wish i could list everyone***Thank you very much everyone & i mean EVERYONE even the CRITICIZERS :)

*****help what we can with haiti or any other in need...the world is ONE big family*****